# xmcd
# 
# Track frame offsets:
#     150
#     26170
#     52257
#     76274
#     101775
#     121626
#     144874
#     165432
#     184072
#     212758
#     232663
#     252697
# 
# Disc length: 3752
# 
# Revision: 2
# Processed by: cddbd v1.5.2PL0 Copyright (c) Steve Scherf et al.
# Submitted via: fre:ac v1.0.31
# 
DISCID=9c0ea60c
DTITLE=Brazen Abbot - My resurrection
DYEAR=2005
DGENRE=Hard Rock
TTITLE0=My resurrection
TTITLE1=Bad madman
TTITLE2=Godforsaken
TTITLE3=Dreams
TTITLE4=Flyin' blind
TTITLE5=Another day gone
TTITLE6=More than money
TTITLE7=The shadows
TTITLE8=Beggar's lane
TTITLE9=Rage of angels
TTITLE10=Lost
TTITLE11=Shades of grey
EXTD=
EXTT0=
EXTT1=
EXTT2=
EXTT3=
EXTT4=
EXTT5=
EXTT6=
EXTT7=
EXTT8=
EXTT9=
EXTT10=
EXTT11=
PLAYORDER=
